G04*
G04 #@! TF.GenerationSoftware,Altium Limited,Altium Designer,19.0.15 (446)*
G04*
G04 Layer_Color=8388736*
%FSLAX23Y23*%
%MOIN*%
G70*
G01*
G75*
%ADD27R,0.091X0.063*%
%ADD28R,0.061X0.057*%
%ADD29R,0.063X0.051*%
%ADD30R,0.057X0.061*%
%ADD31R,0.051X0.063*%
G04:AMPARAMS|DCode=32|XSize=75mil|YSize=56mil|CornerRadius=10mil|HoleSize=0mil|Usage=FLASHONLY|Rotation=90.000|XOffset=0mil|YOffset=0mil|HoleType=Round|Shape=RoundedRectangle|*
%AMROUNDEDRECTD32*
21,1,0.075,0.036,0,0,90.0*
21,1,0.055,0.056,0,0,90.0*
1,1,0.020,0.018,0.028*
1,1,0.020,0.018,-0.028*
1,1,0.020,-0.018,-0.028*
1,1,0.020,-0.018,0.028*
%
%ADD32ROUNDEDRECTD32*%
%ADD33R,0.040X0.028*%
%ADD34R,0.028X0.040*%
%ADD35R,0.065X0.051*%
%ADD36R,0.063X0.016*%
%ADD37R,0.051X0.066*%
%ADD38R,0.051X0.065*%
%ADD39R,0.062X0.062*%
%ADD40C,0.062*%
%ADD41C,0.079*%
%ADD42R,0.079X0.079*%
%ADD43R,0.068X0.068*%
%ADD44C,0.068*%
%ADD45R,0.062X0.062*%
%ADD46C,0.134*%
%ADD47C,0.058*%
%ADD48C,0.043*%
D27*
X-1303Y169D02*
D03*
Y-8D02*
D03*
X-1661D02*
D03*
Y169D02*
D03*
X-876Y-8D02*
D03*
Y169D02*
D03*
X-518D02*
D03*
Y-8D02*
D03*
D28*
X-969Y-8D02*
D03*
Y-69D02*
D03*
X-1184Y39D02*
D03*
Y-22D02*
D03*
X-1925Y-21D02*
D03*
Y-82D02*
D03*
X-1324Y-966D02*
D03*
Y-1027D02*
D03*
X-872Y-969D02*
D03*
Y-1031D02*
D03*
X-1644Y-1075D02*
D03*
Y-1014D02*
D03*
X-1576Y-1075D02*
D03*
Y-1014D02*
D03*
D29*
X-1184Y175D02*
D03*
Y106D02*
D03*
X-1177Y-533D02*
D03*
Y-464D02*
D03*
X-1736Y-1236D02*
D03*
Y-1167D02*
D03*
D30*
X-416Y91D02*
D03*
X-355D02*
D03*
X-1119Y-190D02*
D03*
X-1180D02*
D03*
X-991D02*
D03*
X-1052D02*
D03*
X-916Y-709D02*
D03*
X-977D02*
D03*
X-1137Y-824D02*
D03*
X-1076D02*
D03*
X-1136Y-1226D02*
D03*
X-1075D02*
D03*
D31*
X-353Y171D02*
D03*
X-422D02*
D03*
X-949Y-457D02*
D03*
X-1018D02*
D03*
X-1554Y-1545D02*
D03*
X-1485D02*
D03*
D32*
X-1268Y-581D02*
D03*
Y-475D02*
D03*
D33*
X-1104Y-589D02*
D03*
X-945D02*
D03*
D34*
X-1103Y-629D02*
D03*
X-1072D02*
D03*
X-1040D02*
D03*
X-1009D02*
D03*
X-977D02*
D03*
X-946D02*
D03*
X-1103Y-549D02*
D03*
X-1072D02*
D03*
X-1040D02*
D03*
X-1009D02*
D03*
X-977D02*
D03*
X-946D02*
D03*
D35*
X-952Y-966D02*
D03*
Y-1037D02*
D03*
X-2009Y-89D02*
D03*
Y-18D02*
D03*
X-1244Y-1033D02*
D03*
Y-963D02*
D03*
D36*
X-1644Y-1236D02*
D03*
Y-1217D02*
D03*
Y-1197D02*
D03*
Y-1177D02*
D03*
Y-1157D02*
D03*
X-1472D02*
D03*
Y-1177D02*
D03*
Y-1197D02*
D03*
Y-1217D02*
D03*
Y-1236D02*
D03*
D37*
X-1051Y-1536D02*
D03*
X-975D02*
D03*
D38*
X-1069Y-1147D02*
D03*
X-1140D02*
D03*
X-1069Y-904D02*
D03*
X-1140D02*
D03*
D39*
X-976Y-300D02*
D03*
D40*
X-1076D02*
D03*
X-1176D02*
D03*
X-1276D02*
D03*
X-2006Y-457D02*
D03*
Y-557D02*
D03*
Y-657D02*
D03*
Y-757D02*
D03*
Y-857D02*
D03*
Y-957D02*
D03*
Y-1057D02*
D03*
X-100Y-1656D02*
D03*
Y-1556D02*
D03*
Y-1456D02*
D03*
Y-1356D02*
D03*
Y-1256D02*
D03*
Y-1156D02*
D03*
Y-1056D02*
D03*
D41*
X-923Y-1772D02*
D03*
X-1416D02*
D03*
D42*
X-1120D02*
D03*
X-1612D02*
D03*
D43*
X-100Y3D02*
D03*
X-2006Y-1256D02*
D03*
D44*
X-100Y-97D02*
D03*
Y-297D02*
D03*
Y-397D02*
D03*
Y-497D02*
D03*
Y-597D02*
D03*
Y-697D02*
D03*
Y-797D02*
D03*
Y-897D02*
D03*
Y-197D02*
D03*
X-2006Y-1756D02*
D03*
Y-1656D02*
D03*
Y-1556D02*
D03*
Y-1456D02*
D03*
Y-1356D02*
D03*
D45*
Y-357D02*
D03*
X-100Y-1756D02*
D03*
D46*
X-103Y143D02*
D03*
X-703Y-1855D02*
D03*
X-2004Y193D02*
D03*
D47*
X-1700Y-427D02*
D03*
Y-359D02*
D03*
Y-290D02*
D03*
Y-222D02*
D03*
Y-154D02*
D03*
D48*
X-1584Y-1223D02*
D03*
M02*
