G04*
G04 #@! TF.GenerationSoftware,Altium Limited,Altium Designer,19.0.15 (446)*
G04*
G04 Layer_Color=16711935*
%FSLAX23Y23*%
%MOIN*%
G70*
G01*
G75*
%ADD39R,0.062X0.062*%
%ADD40C,0.062*%
%ADD41C,0.079*%
%ADD42R,0.079X0.079*%
%ADD43R,0.068X0.068*%
%ADD44C,0.068*%
%ADD45R,0.062X0.062*%
%ADD46C,0.134*%
%ADD47C,0.058*%
%ADD48C,0.043*%
D39*
X-976Y-300D02*
D03*
D40*
X-1076D02*
D03*
X-1176D02*
D03*
X-1276D02*
D03*
X-2006Y-457D02*
D03*
Y-557D02*
D03*
Y-657D02*
D03*
Y-757D02*
D03*
Y-857D02*
D03*
Y-957D02*
D03*
Y-1057D02*
D03*
X-100Y-1656D02*
D03*
Y-1556D02*
D03*
Y-1456D02*
D03*
Y-1356D02*
D03*
Y-1256D02*
D03*
Y-1156D02*
D03*
Y-1056D02*
D03*
D41*
X-923Y-1772D02*
D03*
X-1416D02*
D03*
D42*
X-1120D02*
D03*
X-1612D02*
D03*
D43*
X-100Y3D02*
D03*
X-2006Y-1256D02*
D03*
D44*
X-100Y-97D02*
D03*
Y-297D02*
D03*
Y-397D02*
D03*
Y-497D02*
D03*
Y-597D02*
D03*
Y-697D02*
D03*
Y-797D02*
D03*
Y-897D02*
D03*
Y-197D02*
D03*
X-2006Y-1756D02*
D03*
Y-1656D02*
D03*
Y-1556D02*
D03*
Y-1456D02*
D03*
Y-1356D02*
D03*
D45*
Y-357D02*
D03*
X-100Y-1756D02*
D03*
D46*
X-103Y143D02*
D03*
X-703Y-1855D02*
D03*
X-2004Y193D02*
D03*
D47*
X-1700Y-427D02*
D03*
Y-359D02*
D03*
Y-290D02*
D03*
Y-222D02*
D03*
Y-154D02*
D03*
D48*
X-1584Y-1223D02*
D03*
M02*
