G04*
G04 #@! TF.GenerationSoftware,Altium Limited,Altium Designer,19.0.15 (446)*
G04*
G04 Layer_Color=32896*
%FSLAX23Y23*%
%MOIN*%
G70*
G01*
G75*
%ADD13C,0.006*%
%ADD14C,0.010*%
D13*
X-960Y-1860D02*
Y-1900D01*
X-986D01*
X-1020Y-1860D02*
X-1006D01*
X-1000Y-1866D01*
Y-1893D01*
X-1006Y-1900D01*
X-1020D01*
X-1026Y-1893D01*
Y-1866D01*
X-1020Y-1860D01*
X-1040Y-1900D02*
Y-1873D01*
X-1053Y-1860D01*
X-1066Y-1873D01*
Y-1900D01*
Y-1880D01*
X-1040D01*
X-1080Y-1860D02*
Y-1900D01*
X-1100D01*
X-1106Y-1893D01*
Y-1866D01*
X-1100Y-1860D01*
X-1080D01*
X-1458D02*
X-1484D01*
X-1471D01*
Y-1900D01*
X-1524Y-1860D02*
X-1498D01*
Y-1900D01*
X-1524D01*
X-1498Y-1880D02*
X-1511D01*
X-1538Y-1900D02*
Y-1860D01*
X-1551Y-1873D01*
X-1564Y-1860D01*
Y-1900D01*
X-1578D02*
Y-1860D01*
X-1598D01*
X-1604Y-1866D01*
Y-1880D01*
X-1598Y-1886D01*
X-1578D01*
D14*
X-626Y-69D02*
X-586Y-109D01*
X-606Y-89D01*
X-626Y-109D01*
X-586Y-69D01*
X-646Y-129D02*
X-586D01*
Y-159D01*
X-596Y-169D01*
X-606D01*
X-616D01*
X-626Y-159D01*
Y-129D01*
X-586Y-199D02*
Y-219D01*
X-596Y-229D01*
X-616D01*
X-626Y-219D01*
Y-199D01*
X-616Y-189D01*
X-596D01*
X-586Y-199D01*
X-626Y-249D02*
X-596D01*
X-586Y-259D01*
X-596Y-269D01*
X-586Y-279D01*
X-596Y-289D01*
X-626D01*
X-636Y-319D02*
X-626D01*
Y-309D01*
Y-329D01*
Y-319D01*
X-596D01*
X-586Y-329D01*
Y-359D02*
Y-379D01*
Y-369D01*
X-626D01*
Y-359D01*
X-586Y-439D02*
Y-419D01*
X-596Y-409D01*
X-616D01*
X-626Y-419D01*
Y-439D01*
X-616Y-449D01*
X-606D01*
Y-409D01*
X-586Y-469D02*
X-596D01*
Y-479D01*
X-586D01*
Y-469D01*
X-626Y-559D02*
Y-529D01*
X-616Y-519D01*
X-596D01*
X-586Y-529D01*
Y-559D01*
Y-589D02*
Y-609D01*
X-596Y-619D01*
X-616D01*
X-626Y-609D01*
Y-589D01*
X-616Y-579D01*
X-596D01*
X-586Y-589D01*
Y-639D02*
X-626D01*
Y-649D01*
X-616Y-659D01*
X-586D01*
X-616D01*
X-626Y-669D01*
X-616Y-679D01*
X-586D01*
Y-699D02*
X-626Y-739D01*
X-586Y-789D02*
Y-769D01*
X-596Y-759D01*
X-616D01*
X-626Y-769D01*
Y-789D01*
X-616Y-799D01*
X-606D01*
Y-759D01*
X-566Y-839D02*
Y-849D01*
X-576Y-859D01*
X-626D01*
Y-829D01*
X-616Y-819D01*
X-596D01*
X-586Y-829D01*
Y-859D01*
Y-879D02*
Y-899D01*
Y-889D01*
X-626D01*
Y-879D01*
X-636Y-939D02*
X-626D01*
Y-929D01*
Y-949D01*
Y-939D01*
X-596D01*
X-586Y-949D01*
Y-979D02*
X-626D01*
Y-989D01*
X-616Y-999D01*
X-586D01*
X-616D01*
X-626Y-1009D01*
X-616Y-1019D01*
X-586D01*
Y-1069D02*
Y-1049D01*
X-596Y-1039D01*
X-616D01*
X-626Y-1049D01*
Y-1069D01*
X-616Y-1079D01*
X-606D01*
Y-1039D01*
X-586Y-1099D02*
X-626D01*
Y-1129D01*
X-616Y-1139D01*
X-586D01*
Y-1159D02*
X-626Y-1199D01*
Y-1229D02*
Y-1249D01*
X-616Y-1259D01*
X-586D01*
Y-1229D01*
X-596Y-1219D01*
X-606Y-1229D01*
Y-1259D01*
X-626Y-1279D02*
X-586D01*
X-606D01*
X-616Y-1289D01*
X-626Y-1298D01*
Y-1308D01*
X-586Y-1338D02*
Y-1358D01*
Y-1348D01*
X-626D01*
Y-1338D01*
X-586Y-1398D02*
X-636D01*
X-616D01*
Y-1388D01*
Y-1408D01*
Y-1398D01*
X-636D01*
X-646Y-1408D01*
X-586Y-1438D02*
X-626D01*
Y-1448D01*
X-616Y-1458D01*
X-586D01*
X-616D01*
X-626Y-1468D01*
X-616Y-1478D01*
X-586D01*
X-626Y-1508D02*
Y-1528D01*
X-616Y-1538D01*
X-586D01*
Y-1508D01*
X-596Y-1498D01*
X-606Y-1508D01*
Y-1538D01*
X-586Y-1558D02*
X-626D01*
Y-1588D01*
X-616Y-1598D01*
X-586D01*
X-646Y-1658D02*
X-586D01*
Y-1628D01*
X-596Y-1618D01*
X-616D01*
X-626Y-1628D01*
Y-1658D01*
Y-1688D02*
Y-1708D01*
X-616Y-1718D01*
X-586D01*
Y-1688D01*
X-596Y-1678D01*
X-606Y-1688D01*
Y-1718D01*
X-586Y-1738D02*
Y-1758D01*
Y-1748D01*
X-646D01*
Y-1738D01*
X-803Y-243D02*
X-743D01*
Y-273D01*
X-753Y-283D01*
X-793D01*
X-803Y-273D01*
Y-243D01*
X-743Y-333D02*
Y-313D01*
X-753Y-303D01*
X-773D01*
X-783Y-313D01*
Y-333D01*
X-773Y-343D01*
X-763D01*
Y-303D01*
X-743Y-363D02*
Y-393D01*
X-753Y-403D01*
X-763Y-393D01*
Y-373D01*
X-773Y-363D01*
X-783Y-373D01*
Y-403D01*
X-743Y-423D02*
Y-443D01*
Y-433D01*
X-783D01*
Y-423D01*
X-723Y-493D02*
Y-503D01*
X-733Y-513D01*
X-783D01*
Y-483D01*
X-773Y-473D01*
X-753D01*
X-743Y-483D01*
Y-513D01*
Y-533D02*
X-783D01*
Y-563D01*
X-773Y-573D01*
X-743D01*
Y-623D02*
Y-603D01*
X-753Y-593D01*
X-773D01*
X-783Y-603D01*
Y-623D01*
X-773Y-633D01*
X-763D01*
Y-593D01*
X-803Y-693D02*
X-743D01*
Y-663D01*
X-753Y-653D01*
X-773D01*
X-783Y-663D01*
Y-693D01*
X-803Y-773D02*
X-743D01*
Y-803D01*
X-753Y-813D01*
X-763D01*
X-773D01*
X-783Y-803D01*
Y-773D01*
Y-833D02*
X-753D01*
X-743Y-843D01*
Y-873D01*
X-733D01*
X-723Y-863D01*
Y-853D01*
X-743Y-873D02*
X-783D01*
X-743Y-953D02*
X-783D01*
X-803Y-973D01*
X-783Y-993D01*
X-743D01*
X-773D01*
Y-953D01*
X-783Y-1013D02*
X-743D01*
X-763D01*
X-773Y-1023D01*
X-783Y-1033D01*
Y-1043D01*
X-743Y-1073D02*
Y-1093D01*
Y-1083D01*
X-783D01*
Y-1073D01*
X-743Y-1133D02*
X-793D01*
X-773D01*
Y-1123D01*
Y-1143D01*
Y-1133D01*
X-793D01*
X-803Y-1143D01*
X-743Y-1233D02*
X-803D01*
X-783Y-1253D01*
X-803Y-1273D01*
X-743D01*
Y-1293D02*
X-783D01*
X-803Y-1313D01*
X-783Y-1333D01*
X-743D01*
X-773D01*
Y-1293D01*
X-743Y-1353D02*
X-803D01*
X-743Y-1393D01*
X-803D01*
Y-1413D02*
X-743D01*
Y-1443D01*
X-753Y-1453D01*
X-793D01*
X-803Y-1443D01*
Y-1413D01*
X-743Y-1473D02*
X-783D01*
X-803Y-1493D01*
X-783Y-1513D01*
X-743D01*
X-773D01*
Y-1473D01*
X-803Y-1533D02*
X-743D01*
Y-1573D01*
X-1646Y-495D02*
Y-522D01*
Y-508D01*
X-1566D01*
Y-495D01*
Y-522D01*
Y-615D02*
Y-562D01*
X-1619Y-615D01*
X-1633D01*
X-1646Y-602D01*
Y-575D01*
X-1633Y-562D01*
Y-695D02*
X-1646Y-682D01*
Y-655D01*
X-1633Y-642D01*
X-1579D01*
X-1566Y-655D01*
Y-682D01*
X-1579Y-695D01*
X-1633Y-855D02*
X-1646Y-842D01*
Y-815D01*
X-1633Y-802D01*
X-1619D01*
X-1606Y-815D01*
Y-842D01*
X-1593Y-855D01*
X-1579D01*
X-1566Y-842D01*
Y-815D01*
X-1579Y-802D01*
X-1646Y-882D02*
X-1566D01*
X-1606D01*
Y-935D01*
X-1646D01*
X-1566D01*
X-1646Y-962D02*
Y-988D01*
Y-975D01*
X-1566D01*
Y-962D01*
Y-988D01*
X-1646Y-1082D02*
Y-1028D01*
X-1566D01*
Y-1082D01*
X-1606Y-1028D02*
Y-1055D01*
X-1646Y-1108D02*
X-1566D01*
Y-1162D01*
X-1646Y-1188D02*
X-1566D01*
Y-1228D01*
X-1579Y-1242D01*
X-1633D01*
X-1646Y-1228D01*
Y-1188D01*
M02*
