M48
;Layer_Color=5050912
;FILE_FORMAT=2:3
INCH,LZ
;TYPE=PLATED
T1F00S00C0.017
T2F00S00C0.025
T3F00S00C0.040
T4F00S00C0.047
;TYPE=NON_PLATED
T5F00S00C0.126
%
T01
X-01069Y-01004
X-01128Y-00699
X-0119
X-00842Y-00709
X-01366Y-00475
X-01399Y-01157
X-01514Y-01075
X-01722Y-01071
X-01584Y-01223
X-01762Y-00009
X-01752Y00169
X-01927Y-00156
X-02011Y-00155
X-00899Y-00075
X-0048Y-00098
X-00497Y00087
T02
X-017Y-00427
Y-00359
Y-0029
Y-00222
Y-00154
T03
X-001Y-01756
Y-01656
Y-01556
Y-01456
Y-01356
Y-01256
Y-01156
Y-01056
Y-00897
Y-00797
Y-00697
Y-00597
Y-00497
Y-00397
Y-00297
X-00976Y-003
X-01076
X-01176
X-01276
X-02006Y-00357
Y-00457
Y-00557
Y-00657
Y-00757
Y-00857
Y-00957
Y-01057
Y-01256
Y-01356
Y-01456
Y-01556
Y-01656
Y-01756
X-001Y-00197
Y-00097
Y00003
T04
X-0112Y-01772
X-00923
X-01416
X-01612
T05
X-00703Y-01855
X-02004Y00193
X-00103Y00143
M30
