G04*
G04 #@! TF.GenerationSoftware,Altium Limited,Altium Designer,19.0.15 (446)*
G04*
G04 Layer_Physical_Order=2*
G04 Layer_Color=16711680*
%FSLAX23Y23*%
%MOIN*%
G70*
G01*
G75*
%ADD14C,0.010*%
%ADD49C,0.020*%
%ADD51R,0.054X0.054*%
%ADD52C,0.054*%
%ADD53C,0.071*%
%ADD54R,0.071X0.071*%
%ADD55R,0.060X0.060*%
%ADD56C,0.060*%
%ADD57R,0.054X0.054*%
%ADD58C,0.126*%
%ADD59C,0.035*%
%ADD60C,0.050*%
G36*
X-78Y280D02*
X-69D01*
Y280D01*
X-58Y279D01*
X-47Y276D01*
X-36Y270D01*
X-27Y263D01*
X-20Y254D01*
X-15Y244D01*
X-11Y233D01*
X-10Y221D01*
X-10D01*
X-10Y-1798D01*
X-10D01*
X-12Y-1812D01*
X-16Y-1825D01*
X-22Y-1837D01*
X-31Y-1848D01*
X-42Y-1857D01*
X-54Y-1864D01*
X-67Y-1868D01*
X-81Y-1869D01*
Y-1869D01*
X-470D01*
X-473Y-1870D01*
X-475Y-1871D01*
X-475Y-1871D01*
X-552Y-1948D01*
X-1845D01*
X-1922Y-1871D01*
X-1924Y-1869D01*
X-1927Y-1869D01*
X-2026D01*
Y-1869D01*
X-2040Y-1867D01*
X-2053Y-1863D01*
X-2065Y-1857D01*
X-2076Y-1848D01*
X-2085Y-1837D01*
X-2091Y-1825D01*
X-2095Y-1811D01*
X-2097Y-1798D01*
X-2097D01*
X-2097Y209D01*
X-2097D01*
X-2095Y223D01*
X-2091Y236D01*
X-2085Y249D01*
X-2076Y260D01*
X-2065Y268D01*
X-2053Y275D01*
X-2040Y279D01*
X-2026Y280D01*
X-78D01*
X-78Y280D01*
D02*
G37*
%LPC*%
G36*
X-2004Y262D02*
X-2018Y260D01*
X-2031Y257D01*
X-2042Y250D01*
X-2053Y242D01*
X-2061Y231D01*
X-2068Y220D01*
X-2071Y207D01*
X-2073Y193D01*
X-2071Y180D01*
X-2068Y167D01*
X-2061Y155D01*
X-2053Y145D01*
X-2042Y137D01*
X-2031Y130D01*
X-2018Y126D01*
X-2004Y125D01*
X-1991Y126D01*
X-1978Y130D01*
X-1967Y137D01*
X-1956Y145D01*
X-1948Y155D01*
X-1941Y167D01*
X-1937Y180D01*
X-1936Y193D01*
X-1937Y207D01*
X-1941Y220D01*
X-1948Y231D01*
X-1956Y242D01*
X-1967Y250D01*
X-1978Y257D01*
X-1991Y260D01*
X-2004Y262D01*
D02*
G37*
G36*
X-103Y211D02*
X-116Y210D01*
X-129Y206D01*
X-140Y200D01*
X-151Y191D01*
X-159Y181D01*
X-166Y169D01*
X-170Y156D01*
X-171Y143D01*
X-170Y130D01*
X-166Y117D01*
X-159Y105D01*
X-151Y95D01*
X-140Y86D01*
X-129Y80D01*
X-116Y76D01*
X-103Y75D01*
X-89Y76D01*
X-76Y80D01*
X-65Y86D01*
X-54Y95D01*
X-46Y105D01*
X-39Y117D01*
X-36Y130D01*
X-34Y143D01*
X-36Y156D01*
X-39Y169D01*
X-46Y181D01*
X-54Y191D01*
X-65Y200D01*
X-76Y206D01*
X-89Y210D01*
X-103Y211D01*
D02*
G37*
G36*
X-65Y38D02*
X-135D01*
Y14D01*
X-135Y14D01*
X-136Y14D01*
X-137Y14D01*
X-138Y14D01*
X-140Y14D01*
X-141Y14D01*
X-164D01*
X-168Y13D01*
X-171Y11D01*
X-339Y-157D01*
X-943D01*
X-947Y-158D01*
X-950Y-160D01*
X-1053Y-263D01*
X-1053Y-263D01*
X-1054Y-264D01*
X-1056Y-265D01*
X-1057Y-265D01*
X-1059Y-266D01*
X-1061Y-267D01*
X-1063Y-267D01*
X-1066Y-268D01*
X-1072Y-268D01*
X-1076Y-268D01*
X-1076Y-268D01*
X-1084Y-269D01*
X-1092Y-273D01*
X-1099Y-278D01*
X-1104Y-284D01*
X-1107Y-292D01*
X-1108Y-300D01*
X-1107Y-309D01*
X-1104Y-317D01*
X-1099Y-323D01*
X-1098Y-324D01*
X-1098Y-325D01*
X-1093Y-329D01*
X-1091Y-331D01*
X-1089Y-334D01*
X-1088Y-336D01*
X-1087Y-337D01*
X-1086Y-339D01*
X-1086Y-341D01*
X-1085Y-342D01*
X-1085Y-344D01*
X-1085Y-344D01*
Y-771D01*
X-1378Y-1065D01*
X-1486D01*
X-1486Y-1064D01*
X-1488Y-1064D01*
X-1489Y-1064D01*
X-1490Y-1064D01*
X-1491Y-1064D01*
X-1492Y-1063D01*
X-1493Y-1063D01*
X-1494Y-1062D01*
X-1495Y-1061D01*
X-1496Y-1060D01*
X-1497Y-1059D01*
X-1498Y-1059D01*
X-1505Y-1054D01*
X-1514Y-1052D01*
X-1523Y-1054D01*
X-1530Y-1059D01*
X-1535Y-1066D01*
X-1537Y-1075D01*
X-1535Y-1084D01*
X-1530Y-1091D01*
X-1523Y-1096D01*
X-1514Y-1098D01*
X-1505Y-1096D01*
X-1498Y-1091D01*
X-1497Y-1091D01*
X-1496Y-1090D01*
X-1495Y-1089D01*
X-1494Y-1088D01*
X-1493Y-1087D01*
X-1492Y-1086D01*
X-1491Y-1086D01*
X-1490Y-1086D01*
X-1489Y-1085D01*
X-1488Y-1085D01*
X-1486Y-1085D01*
X-1486Y-1085D01*
X-1374D01*
X-1370Y-1084D01*
X-1367Y-1082D01*
X-1068Y-783D01*
X-1065Y-779D01*
X-1065Y-776D01*
Y-344D01*
X-1064Y-343D01*
X-1064Y-342D01*
X-1064Y-340D01*
X-1064Y-339D01*
X-1063Y-337D01*
X-1062Y-335D01*
X-1060Y-333D01*
X-1059Y-330D01*
X-1055Y-325D01*
X-1052Y-322D01*
X-1052Y-322D01*
X-1048Y-317D01*
X-1045Y-309D01*
X-1044Y-301D01*
X-1044Y-300D01*
X-1044Y-293D01*
X-1043Y-290D01*
X-1043Y-288D01*
X-1042Y-285D01*
X-1042Y-283D01*
X-1041Y-281D01*
X-1040Y-280D01*
X-1039Y-279D01*
X-1038Y-277D01*
X-1038Y-277D01*
X-939Y-178D01*
X-335D01*
X-331Y-177D01*
X-327Y-175D01*
X-160Y-7D01*
X-141D01*
X-140Y-7D01*
X-138Y-7D01*
X-137Y-7D01*
X-136Y-7D01*
X-135Y-8D01*
X-135Y-8D01*
Y-32D01*
X-65D01*
Y38D01*
D02*
G37*
G36*
X-1762Y14D02*
X-1771Y12D01*
X-1778Y7D01*
X-1783Y-0D01*
X-1785Y-9D01*
X-1785Y-9D01*
X-1785Y-11D01*
X-1785Y-12D01*
X-1785Y-14D01*
X-1785Y-15D01*
X-1786Y-16D01*
X-1786Y-17D01*
X-1787Y-18D01*
X-1787Y-19D01*
X-1788Y-20D01*
X-1789Y-21D01*
X-1789Y-21D01*
X-1832Y-65D01*
X-1834Y-68D01*
X-1835Y-72D01*
Y-440D01*
X-1942Y-546D01*
X-1963D01*
X-1963Y-546D01*
X-1965Y-546D01*
X-1966Y-546D01*
X-1968Y-545D01*
X-1969Y-544D01*
X-1971Y-543D01*
X-1973Y-542D01*
X-1976Y-541D01*
X-1980Y-536D01*
X-1983Y-534D01*
X-1983Y-534D01*
X-1990Y-529D01*
X-1998Y-525D01*
X-2006Y-524D01*
X-2014Y-525D01*
X-2022Y-529D01*
X-2029Y-534D01*
X-2034Y-540D01*
X-2037Y-548D01*
X-2038Y-557D01*
X-2037Y-565D01*
X-2034Y-573D01*
X-2029Y-579D01*
X-2022Y-585D01*
X-2014Y-588D01*
X-2006Y-589D01*
X-1998Y-588D01*
X-1990Y-585D01*
X-1983Y-580D01*
X-1983Y-579D01*
X-1978Y-575D01*
X-1976Y-573D01*
X-1973Y-571D01*
X-1971Y-570D01*
X-1969Y-569D01*
X-1968Y-568D01*
X-1966Y-567D01*
X-1965Y-567D01*
X-1963Y-567D01*
X-1963Y-567D01*
X-1937D01*
X-1934Y-566D01*
X-1930Y-564D01*
X-1818Y-451D01*
X-1815Y-448D01*
X-1815Y-444D01*
Y-76D01*
X-1774Y-36D01*
X-1774Y-36D01*
X-1773Y-35D01*
X-1772Y-34D01*
X-1771Y-34D01*
X-1770Y-33D01*
X-1769Y-33D01*
X-1768Y-32D01*
X-1767Y-32D01*
X-1765Y-32D01*
X-1764Y-32D01*
X-1762Y-32D01*
X-1762Y-32D01*
X-1753Y-30D01*
X-1746Y-25D01*
X-1741Y-18D01*
X-1739Y-9D01*
X-1741Y-0D01*
X-1746Y7D01*
X-1753Y12D01*
X-1762Y14D01*
D02*
G37*
G36*
X-899Y-52D02*
X-907Y-54D01*
X-915Y-59D01*
X-915Y-59D01*
X-916Y-60D01*
X-917Y-61D01*
X-919Y-62D01*
X-920Y-63D01*
X-921Y-63D01*
X-922Y-64D01*
X-923Y-64D01*
X-924Y-64D01*
X-925Y-64D01*
X-926Y-64D01*
X-927Y-65D01*
X-1174D01*
X-1178Y-65D01*
X-1181Y-68D01*
X-1889Y-775D01*
X-1891Y-779D01*
X-1892Y-782D01*
Y-1278D01*
X-1961Y-1347D01*
X-1963Y-1347D01*
X-1965Y-1346D01*
X-1967Y-1345D01*
X-1969Y-1343D01*
X-1971Y-1341D01*
X-1977Y-1336D01*
X-1979Y-1333D01*
X-1980Y-1333D01*
X-1981Y-1331D01*
X-1988Y-1326D01*
X-1997Y-1322D01*
X-2006Y-1321D01*
X-2015Y-1322D01*
X-2024Y-1326D01*
X-2031Y-1331D01*
X-2037Y-1339D01*
X-2040Y-1347D01*
X-2041Y-1356D01*
X-2040Y-1366D01*
X-2037Y-1374D01*
X-2031Y-1381D01*
X-2024Y-1387D01*
X-2015Y-1391D01*
X-2006Y-1392D01*
X-1997Y-1391D01*
X-1988Y-1387D01*
X-1983Y-1383D01*
X-1982Y-1383D01*
X-1979Y-1380D01*
X-1973Y-1375D01*
X-1970Y-1373D01*
X-1968Y-1372D01*
X-1965Y-1371D01*
X-1963Y-1370D01*
X-1962Y-1369D01*
X-1960Y-1369D01*
X-1958Y-1369D01*
X-1958Y-1368D01*
X-1958D01*
X-1954Y-1368D01*
X-1950Y-1365D01*
X-1875Y-1290D01*
X-1872Y-1286D01*
X-1872Y-1282D01*
Y-787D01*
X-1170Y-85D01*
X-927D01*
X-926Y-85D01*
X-925Y-85D01*
X-924Y-85D01*
X-923Y-86D01*
X-922Y-86D01*
X-921Y-86D01*
X-920Y-87D01*
X-919Y-88D01*
X-917Y-89D01*
X-916Y-90D01*
X-915Y-91D01*
X-915Y-91D01*
X-907Y-96D01*
X-899Y-98D01*
X-890Y-96D01*
X-882Y-91D01*
X-877Y-84D01*
X-876Y-75D01*
X-877Y-66D01*
X-882Y-59D01*
X-890Y-54D01*
X-899Y-52D01*
D02*
G37*
G36*
X-587Y-5D02*
X-1178D01*
X-1182Y-5D01*
X-1185Y-8D01*
X-1595Y-417D01*
X-1660D01*
X-1660Y-417D01*
X-1662Y-417D01*
X-1663Y-416D01*
X-1665Y-416D01*
X-1666Y-415D01*
X-1668Y-414D01*
X-1670Y-413D01*
X-1672Y-412D01*
X-1676Y-408D01*
X-1679Y-406D01*
X-1679Y-406D01*
X-1685Y-401D01*
X-1692Y-398D01*
X-1700Y-397D01*
X-1708Y-398D01*
X-1715Y-401D01*
X-1722Y-406D01*
X-1727Y-412D01*
X-1730Y-419D01*
X-1731Y-427D01*
X-1730Y-435D01*
X-1727Y-442D01*
X-1722Y-449D01*
X-1715Y-453D01*
X-1708Y-456D01*
X-1700Y-457D01*
X-1692Y-456D01*
X-1685Y-453D01*
X-1679Y-449D01*
X-1679Y-449D01*
X-1674Y-444D01*
X-1672Y-443D01*
X-1670Y-441D01*
X-1668Y-440D01*
X-1666Y-439D01*
X-1665Y-438D01*
X-1663Y-438D01*
X-1662Y-438D01*
X-1660Y-438D01*
X-1660Y-437D01*
X-1591D01*
X-1587Y-437D01*
X-1583Y-434D01*
X-1174Y-25D01*
X-591D01*
X-510Y-106D01*
X-507Y-108D01*
X-504Y-108D01*
X-503Y-109D01*
X-501Y-109D01*
X-500Y-109D01*
X-497Y-115D01*
X-489Y-120D01*
X-480Y-121D01*
X-472Y-120D01*
X-464Y-115D01*
X-459Y-107D01*
X-457Y-98D01*
X-459Y-90D01*
X-464Y-82D01*
X-472Y-77D01*
X-480Y-75D01*
X-489Y-77D01*
X-497Y-82D01*
X-498Y-84D01*
X-503Y-84D01*
X-579Y-8D01*
X-583Y-5D01*
X-587Y-5D01*
D02*
G37*
G36*
X-100Y-61D02*
X-109Y-62D01*
X-118Y-66D01*
X-125Y-72D01*
X-131Y-79D01*
X-134Y-87D01*
X-135Y-97D01*
X-134Y-106D01*
X-131Y-114D01*
X-125Y-122D01*
X-118Y-127D01*
X-109Y-131D01*
X-100Y-132D01*
X-91Y-131D01*
X-82Y-127D01*
X-75Y-122D01*
X-69Y-114D01*
X-66Y-106D01*
X-65Y-97D01*
X-66Y-87D01*
X-69Y-79D01*
X-75Y-72D01*
X-82Y-66D01*
X-91Y-62D01*
X-100Y-61D01*
D02*
G37*
G36*
Y-161D02*
X-109Y-162D01*
X-118Y-166D01*
X-125Y-172D01*
X-131Y-179D01*
X-134Y-187D01*
X-135Y-197D01*
X-134Y-206D01*
X-131Y-214D01*
X-125Y-222D01*
X-118Y-227D01*
X-109Y-231D01*
X-100Y-232D01*
X-91Y-231D01*
X-82Y-227D01*
X-75Y-222D01*
X-69Y-214D01*
X-66Y-206D01*
X-65Y-197D01*
X-66Y-187D01*
X-69Y-179D01*
X-75Y-172D01*
X-82Y-166D01*
X-91Y-162D01*
X-100Y-161D01*
D02*
G37*
G36*
X-1700Y-192D02*
X-1708Y-193D01*
X-1715Y-196D01*
X-1722Y-201D01*
X-1727Y-207D01*
X-1730Y-214D01*
X-1731Y-222D01*
X-1730Y-230D01*
X-1727Y-237D01*
X-1722Y-243D01*
X-1715Y-248D01*
X-1708Y-251D01*
X-1700Y-252D01*
X-1692Y-251D01*
X-1685Y-248D01*
X-1679Y-243D01*
X-1674Y-237D01*
X-1671Y-230D01*
X-1670Y-222D01*
X-1671Y-214D01*
X-1674Y-207D01*
X-1679Y-201D01*
X-1685Y-196D01*
X-1692Y-193D01*
X-1700Y-192D01*
D02*
G37*
G36*
Y-260D02*
X-1708Y-261D01*
X-1715Y-264D01*
X-1722Y-269D01*
X-1726Y-274D01*
X-1726Y-274D01*
X-1727Y-276D01*
X-1728Y-277D01*
X-1729Y-278D01*
X-1730Y-278D01*
X-1731Y-279D01*
X-1733Y-280D01*
X-1734Y-280D01*
X-1736Y-280D01*
X-1738Y-281D01*
X-1740Y-281D01*
X-1740Y-281D01*
X-1744D01*
X-1750Y-282D01*
X-1755Y-285D01*
X-1800Y-331D01*
X-1804Y-336D01*
X-1805Y-342D01*
Y-609D01*
X-1937Y-741D01*
X-1964D01*
X-1965Y-741D01*
X-1967Y-741D01*
X-1969Y-741D01*
X-1971Y-740D01*
X-1973Y-740D01*
X-1975Y-739D01*
X-1977Y-739D01*
X-1978Y-738D01*
X-1980Y-737D01*
X-1981Y-735D01*
X-1983Y-734D01*
X-1983Y-734D01*
X-1990Y-729D01*
X-1998Y-725D01*
X-2006Y-724D01*
X-2014Y-725D01*
X-2022Y-729D01*
X-2029Y-734D01*
X-2034Y-740D01*
X-2037Y-748D01*
X-2038Y-757D01*
X-2037Y-765D01*
X-2034Y-773D01*
X-2029Y-779D01*
X-2022Y-785D01*
X-2014Y-788D01*
X-2006Y-789D01*
X-1998Y-788D01*
X-1990Y-785D01*
X-1983Y-780D01*
X-1983Y-779D01*
X-1981Y-778D01*
X-1980Y-777D01*
X-1978Y-776D01*
X-1977Y-775D01*
X-1975Y-774D01*
X-1973Y-773D01*
X-1971Y-773D01*
X-1969Y-772D01*
X-1967Y-772D01*
X-1965Y-772D01*
X-1964Y-772D01*
X-1931D01*
X-1925Y-771D01*
X-1920Y-767D01*
X-1779Y-626D01*
X-1775Y-621D01*
X-1774Y-615D01*
Y-348D01*
X-1738Y-311D01*
X-1735D01*
X-1735Y-312D01*
X-1733Y-312D01*
X-1728Y-312D01*
X-1726Y-312D01*
X-1725Y-313D01*
X-1723Y-313D01*
X-1721Y-314D01*
X-1719Y-314D01*
X-1718Y-315D01*
X-1716Y-316D01*
X-1716Y-316D01*
X-1715Y-317D01*
X-1708Y-320D01*
X-1700Y-321D01*
X-1692Y-320D01*
X-1685Y-317D01*
X-1679Y-312D01*
X-1674Y-305D01*
X-1671Y-298D01*
X-1670Y-290D01*
X-1671Y-283D01*
X-1674Y-275D01*
X-1679Y-269D01*
X-1685Y-264D01*
X-1692Y-261D01*
X-1700Y-260D01*
D02*
G37*
G36*
X-1176Y-268D02*
X-1184Y-269D01*
X-1192Y-273D01*
X-1199Y-278D01*
X-1204Y-284D01*
X-1207Y-292D01*
X-1208Y-300D01*
X-1207Y-309D01*
X-1204Y-317D01*
X-1199Y-323D01*
X-1192Y-328D01*
X-1184Y-332D01*
X-1176Y-333D01*
X-1168Y-332D01*
X-1160Y-328D01*
X-1153Y-323D01*
X-1148Y-317D01*
X-1145Y-309D01*
X-1144Y-300D01*
X-1145Y-292D01*
X-1148Y-284D01*
X-1153Y-278D01*
X-1160Y-273D01*
X-1168Y-269D01*
X-1176Y-268D01*
D02*
G37*
G36*
X-1974Y-325D02*
X-2038D01*
Y-389D01*
X-1974D01*
Y-325D01*
D02*
G37*
G36*
X-1700Y-329D02*
X-1708Y-330D01*
X-1715Y-333D01*
X-1722Y-337D01*
X-1727Y-344D01*
X-1730Y-351D01*
X-1731Y-359D01*
X-1730Y-367D01*
X-1727Y-374D01*
X-1722Y-380D01*
X-1715Y-385D01*
X-1708Y-388D01*
X-1700Y-389D01*
X-1692Y-388D01*
X-1685Y-385D01*
X-1679Y-380D01*
X-1674Y-374D01*
X-1671Y-367D01*
X-1670Y-359D01*
X-1671Y-351D01*
X-1674Y-344D01*
X-1679Y-337D01*
X-1685Y-333D01*
X-1692Y-330D01*
X-1700Y-329D01*
D02*
G37*
G36*
X-100Y-361D02*
X-109Y-362D01*
X-118Y-366D01*
X-125Y-372D01*
X-131Y-379D01*
X-134Y-387D01*
X-135Y-397D01*
X-134Y-406D01*
X-131Y-414D01*
X-125Y-422D01*
X-118Y-427D01*
X-109Y-431D01*
X-100Y-432D01*
X-91Y-431D01*
X-82Y-427D01*
X-75Y-422D01*
X-69Y-414D01*
X-66Y-406D01*
X-65Y-397D01*
X-66Y-387D01*
X-69Y-379D01*
X-75Y-372D01*
X-82Y-366D01*
X-91Y-362D01*
X-100Y-361D01*
D02*
G37*
G36*
X-1927Y-134D02*
X-1936Y-135D01*
X-1943Y-140D01*
X-1948Y-148D01*
X-1950Y-156D01*
X-1948Y-165D01*
X-1944Y-172D01*
X-1944Y-172D01*
X-1944Y-173D01*
X-1943Y-173D01*
X-1943Y-173D01*
X-1943Y-173D01*
X-1943Y-174D01*
X-1943Y-175D01*
X-1943Y-180D01*
X-1943Y-181D01*
X-1942Y-182D01*
Y-434D01*
X-1950Y-441D01*
X-1964D01*
X-1965Y-441D01*
X-1967Y-441D01*
X-1969Y-441D01*
X-1971Y-440D01*
X-1973Y-440D01*
X-1975Y-439D01*
X-1977Y-439D01*
X-1978Y-438D01*
X-1980Y-437D01*
X-1981Y-435D01*
X-1983Y-434D01*
X-1983Y-434D01*
X-1990Y-429D01*
X-1998Y-425D01*
X-2006Y-424D01*
X-2014Y-425D01*
X-2022Y-429D01*
X-2029Y-434D01*
X-2034Y-440D01*
X-2037Y-448D01*
X-2038Y-457D01*
X-2037Y-465D01*
X-2034Y-473D01*
X-2029Y-479D01*
X-2022Y-484D01*
X-2014Y-488D01*
X-2006Y-489D01*
X-1998Y-488D01*
X-1990Y-484D01*
X-1983Y-480D01*
X-1983Y-479D01*
X-1981Y-478D01*
X-1980Y-477D01*
X-1978Y-476D01*
X-1977Y-475D01*
X-1975Y-474D01*
X-1973Y-473D01*
X-1971Y-473D01*
X-1969Y-472D01*
X-1967Y-472D01*
X-1965Y-472D01*
X-1964Y-472D01*
X-1944D01*
X-1938Y-471D01*
X-1933Y-467D01*
X-1916Y-451D01*
X-1913Y-446D01*
X-1912Y-440D01*
Y-182D01*
X-1912Y-181D01*
X-1912Y-178D01*
X-1911Y-175D01*
X-1911Y-174D01*
X-1911Y-173D01*
X-1911Y-173D01*
X-1911Y-173D01*
X-1911Y-173D01*
X-1911Y-172D01*
X-1911Y-172D01*
X-1906Y-165D01*
X-1904Y-156D01*
X-1906Y-148D01*
X-1911Y-140D01*
X-1918Y-135D01*
X-1927Y-134D01*
D02*
G37*
G36*
X-100Y-461D02*
X-109Y-462D01*
X-118Y-466D01*
X-125Y-472D01*
X-131Y-479D01*
X-134Y-487D01*
X-135Y-497D01*
X-134Y-506D01*
X-131Y-514D01*
X-125Y-522D01*
X-118Y-527D01*
X-109Y-531D01*
X-100Y-532D01*
X-91Y-531D01*
X-82Y-527D01*
X-75Y-522D01*
X-69Y-514D01*
X-66Y-506D01*
X-65Y-497D01*
X-66Y-487D01*
X-69Y-479D01*
X-75Y-472D01*
X-82Y-466D01*
X-91Y-462D01*
X-100Y-461D01*
D02*
G37*
G36*
Y-561D02*
X-109Y-562D01*
X-118Y-566D01*
X-125Y-572D01*
X-131Y-579D01*
X-134Y-587D01*
X-135Y-597D01*
X-134Y-606D01*
X-131Y-614D01*
X-125Y-622D01*
X-118Y-627D01*
X-109Y-631D01*
X-100Y-632D01*
X-91Y-631D01*
X-82Y-627D01*
X-75Y-622D01*
X-69Y-614D01*
X-66Y-606D01*
X-65Y-597D01*
X-66Y-587D01*
X-69Y-579D01*
X-75Y-572D01*
X-82Y-566D01*
X-91Y-562D01*
X-100Y-561D01*
D02*
G37*
G36*
X-2006Y-624D02*
X-2014Y-625D01*
X-2022Y-629D01*
X-2029Y-634D01*
X-2034Y-640D01*
X-2037Y-648D01*
X-2038Y-657D01*
X-2037Y-665D01*
X-2034Y-673D01*
X-2029Y-679D01*
X-2022Y-684D01*
X-2014Y-688D01*
X-2006Y-689D01*
X-1998Y-688D01*
X-1990Y-684D01*
X-1983Y-679D01*
X-1978Y-673D01*
X-1975Y-665D01*
X-1974Y-657D01*
X-1975Y-648D01*
X-1978Y-640D01*
X-1983Y-634D01*
X-1990Y-629D01*
X-1998Y-625D01*
X-2006Y-624D01*
D02*
G37*
G36*
X-1177Y-639D02*
X-1699D01*
X-1703Y-640D01*
X-1706Y-642D01*
X-1843Y-779D01*
X-1845Y-783D01*
X-1846Y-786D01*
Y-1576D01*
X-1916Y-1646D01*
X-1957D01*
X-1958Y-1646D01*
X-1960Y-1646D01*
X-1961Y-1646D01*
X-1963Y-1645D01*
X-1965Y-1644D01*
X-1967Y-1643D01*
X-1970Y-1641D01*
X-1972Y-1639D01*
X-1978Y-1634D01*
X-1981Y-1631D01*
X-1981Y-1631D01*
X-1981Y-1631D01*
X-1988Y-1626D01*
X-1997Y-1622D01*
X-2006Y-1621D01*
X-2015Y-1622D01*
X-2024Y-1626D01*
X-2031Y-1631D01*
X-2037Y-1639D01*
X-2040Y-1647D01*
X-2041Y-1656D01*
X-2040Y-1666D01*
X-2037Y-1674D01*
X-2031Y-1681D01*
X-2024Y-1687D01*
X-2015Y-1691D01*
X-2006Y-1692D01*
X-1997Y-1691D01*
X-1988Y-1687D01*
X-1981Y-1681D01*
X-1981Y-1681D01*
X-1981Y-1681D01*
X-1978Y-1678D01*
X-1972Y-1673D01*
X-1970Y-1672D01*
X-1967Y-1670D01*
X-1965Y-1669D01*
X-1963Y-1668D01*
X-1961Y-1667D01*
X-1960Y-1667D01*
X-1958Y-1667D01*
X-1957Y-1667D01*
X-1911D01*
X-1907Y-1666D01*
X-1904Y-1664D01*
X-1828Y-1588D01*
X-1826Y-1585D01*
X-1825Y-1581D01*
Y-791D01*
X-1695Y-660D01*
X-1181D01*
X-1155Y-686D01*
X-1154Y-687D01*
X-1154Y-688D01*
X-1153Y-688D01*
X-1152Y-689D01*
X-1152Y-690D01*
X-1152Y-691D01*
X-1151Y-693D01*
X-1151Y-694D01*
X-1151Y-695D01*
X-1151Y-697D01*
X-1151Y-699D01*
X-1151Y-699D01*
X-1149Y-708D01*
X-1144Y-715D01*
X-1136Y-720D01*
X-1128Y-722D01*
X-1119Y-720D01*
X-1111Y-715D01*
X-1106Y-708D01*
X-1105Y-699D01*
X-1106Y-690D01*
X-1111Y-683D01*
X-1119Y-678D01*
X-1128Y-676D01*
X-1128Y-676D01*
X-1130Y-676D01*
X-1131Y-676D01*
X-1133Y-676D01*
X-1134Y-675D01*
X-1135Y-675D01*
X-1136Y-674D01*
X-1137Y-674D01*
X-1138Y-673D01*
X-1139Y-673D01*
X-1140Y-672D01*
X-1140Y-672D01*
X-1170Y-642D01*
X-1173Y-640D01*
X-1177Y-639D01*
D02*
G37*
G36*
X-1190Y-676D02*
X-1199Y-678D01*
X-1206Y-683D01*
X-1206Y-683D01*
X-1208Y-684D01*
X-1209Y-685D01*
X-1210Y-686D01*
X-1211Y-687D01*
X-1212Y-687D01*
X-1213Y-688D01*
X-1214Y-688D01*
X-1215Y-688D01*
X-1216Y-688D01*
X-1217Y-688D01*
X-1218Y-689D01*
X-1683D01*
X-1687Y-689D01*
X-1690Y-692D01*
X-1815Y-817D01*
X-1817Y-820D01*
X-1818Y-824D01*
Y-1638D01*
X-1923Y-1743D01*
X-1958D01*
X-1959Y-1743D01*
X-1960Y-1742D01*
X-1962Y-1742D01*
X-1964Y-1742D01*
X-1966Y-1741D01*
X-1968Y-1739D01*
X-1971Y-1738D01*
X-1980Y-1731D01*
X-1984Y-1729D01*
X-1985Y-1728D01*
X-1988Y-1726D01*
X-1997Y-1722D01*
X-2006Y-1721D01*
X-2015Y-1722D01*
X-2024Y-1726D01*
X-2031Y-1731D01*
X-2037Y-1739D01*
X-2040Y-1747D01*
X-2041Y-1756D01*
X-2040Y-1766D01*
X-2037Y-1774D01*
X-2031Y-1781D01*
X-2024Y-1787D01*
X-2015Y-1791D01*
X-2006Y-1792D01*
X-1997Y-1791D01*
X-1988Y-1787D01*
X-1981Y-1781D01*
X-1979Y-1779D01*
X-1978Y-1778D01*
X-1976Y-1775D01*
X-1973Y-1773D01*
X-1971Y-1770D01*
X-1969Y-1768D01*
X-1967Y-1767D01*
X-1965Y-1765D01*
X-1963Y-1764D01*
X-1961Y-1764D01*
X-1959Y-1763D01*
X-1958Y-1763D01*
X-1957Y-1763D01*
X-1957Y-1763D01*
X-1957Y-1763D01*
X-1918D01*
X-1914Y-1762D01*
X-1911Y-1760D01*
X-1801Y-1650D01*
X-1799Y-1647D01*
X-1798Y-1643D01*
Y-828D01*
X-1679Y-709D01*
X-1218D01*
X-1217Y-709D01*
X-1216Y-709D01*
X-1215Y-709D01*
X-1214Y-710D01*
X-1213Y-710D01*
X-1212Y-710D01*
X-1211Y-711D01*
X-1210Y-712D01*
X-1209Y-713D01*
X-1208Y-714D01*
X-1206Y-715D01*
X-1206Y-715D01*
X-1199Y-720D01*
X-1190Y-722D01*
X-1181Y-720D01*
X-1174Y-715D01*
X-1169Y-708D01*
X-1167Y-699D01*
X-1169Y-690D01*
X-1174Y-683D01*
X-1181Y-678D01*
X-1190Y-676D01*
D02*
G37*
G36*
X-100Y-661D02*
X-109Y-662D01*
X-118Y-666D01*
X-125Y-672D01*
X-131Y-679D01*
X-134Y-687D01*
X-135Y-697D01*
X-134Y-706D01*
X-131Y-714D01*
X-125Y-722D01*
X-118Y-727D01*
X-109Y-731D01*
X-100Y-732D01*
X-91Y-731D01*
X-82Y-727D01*
X-75Y-722D01*
X-69Y-714D01*
X-66Y-706D01*
X-65Y-697D01*
X-66Y-687D01*
X-69Y-679D01*
X-75Y-672D01*
X-82Y-666D01*
X-91Y-662D01*
X-100Y-661D01*
D02*
G37*
G36*
Y-761D02*
X-109Y-762D01*
X-118Y-766D01*
X-125Y-772D01*
X-131Y-779D01*
X-134Y-787D01*
X-135Y-797D01*
X-134Y-806D01*
X-131Y-814D01*
X-125Y-822D01*
X-118Y-827D01*
X-109Y-831D01*
X-100Y-832D01*
X-91Y-831D01*
X-82Y-827D01*
X-75Y-822D01*
X-69Y-814D01*
X-66Y-806D01*
X-65Y-797D01*
X-66Y-787D01*
X-69Y-779D01*
X-75Y-772D01*
X-82Y-766D01*
X-91Y-762D01*
X-100Y-761D01*
D02*
G37*
G36*
Y-861D02*
X-109Y-862D01*
X-118Y-866D01*
X-125Y-872D01*
X-131Y-879D01*
X-134Y-887D01*
X-135Y-897D01*
X-134Y-906D01*
X-131Y-914D01*
X-125Y-922D01*
X-118Y-927D01*
X-109Y-931D01*
X-100Y-932D01*
X-91Y-931D01*
X-82Y-927D01*
X-75Y-922D01*
X-69Y-914D01*
X-66Y-906D01*
X-65Y-897D01*
X-66Y-887D01*
X-69Y-879D01*
X-75Y-872D01*
X-82Y-866D01*
X-91Y-862D01*
X-100Y-861D01*
D02*
G37*
G36*
Y-1024D02*
X-108Y-1025D01*
X-116Y-1029D01*
X-123Y-1034D01*
X-128Y-1040D01*
X-131Y-1048D01*
X-132Y-1056D01*
X-131Y-1065D01*
X-128Y-1073D01*
X-123Y-1079D01*
X-116Y-1084D01*
X-108Y-1088D01*
X-100Y-1089D01*
X-92Y-1088D01*
X-84Y-1084D01*
X-77Y-1079D01*
X-72Y-1073D01*
X-69Y-1065D01*
X-68Y-1056D01*
X-69Y-1048D01*
X-72Y-1040D01*
X-77Y-1034D01*
X-84Y-1029D01*
X-92Y-1025D01*
X-100Y-1024D01*
D02*
G37*
G36*
X-2006Y-1024D02*
X-2014Y-1025D01*
X-2022Y-1029D01*
X-2029Y-1034D01*
X-2034Y-1040D01*
X-2037Y-1048D01*
X-2038Y-1057D01*
X-2037Y-1065D01*
X-2034Y-1073D01*
X-2029Y-1079D01*
X-2022Y-1084D01*
X-2014Y-1088D01*
X-2006Y-1089D01*
X-1998Y-1088D01*
X-1990Y-1084D01*
X-1983Y-1079D01*
X-1978Y-1073D01*
X-1975Y-1065D01*
X-1974Y-1057D01*
X-1975Y-1048D01*
X-1978Y-1040D01*
X-1983Y-1034D01*
X-1990Y-1029D01*
X-1998Y-1025D01*
X-2006Y-1024D01*
D02*
G37*
G36*
X-944Y-269D02*
X-1008D01*
Y-332D01*
X-987D01*
X-987Y-332D01*
X-987Y-333D01*
X-987Y-333D01*
X-987Y-334D01*
X-987Y-336D01*
X-987Y-337D01*
X-986Y-338D01*
Y-852D01*
X-1237Y-1103D01*
X-1710D01*
X-1712Y-1098D01*
X-1712Y-1098D01*
X-1712Y-1097D01*
X-1712Y-1096D01*
X-1712Y-1095D01*
X-1711Y-1094D01*
X-1711Y-1093D01*
X-1710Y-1092D01*
X-1709Y-1091D01*
X-1709Y-1090D01*
X-1708Y-1088D01*
X-1706Y-1087D01*
X-1706Y-1087D01*
X-1701Y-1080D01*
X-1699Y-1071D01*
X-1701Y-1062D01*
X-1706Y-1055D01*
X-1714Y-1050D01*
X-1722Y-1048D01*
X-1731Y-1050D01*
X-1739Y-1055D01*
X-1744Y-1062D01*
X-1745Y-1071D01*
X-1744Y-1080D01*
X-1739Y-1087D01*
X-1739Y-1087D01*
X-1737Y-1088D01*
X-1736Y-1090D01*
X-1735Y-1091D01*
X-1735Y-1092D01*
X-1734Y-1093D01*
X-1734Y-1094D01*
X-1733Y-1095D01*
X-1733Y-1096D01*
X-1733Y-1097D01*
X-1733Y-1098D01*
X-1733Y-1099D01*
Y-1106D01*
X-1732Y-1110D01*
X-1730Y-1114D01*
X-1723Y-1120D01*
X-1719Y-1123D01*
X-1716Y-1123D01*
X-1233D01*
X-1229Y-1123D01*
X-1226Y-1120D01*
X-969Y-863D01*
X-967Y-860D01*
X-966Y-856D01*
Y-338D01*
X-966Y-337D01*
X-966Y-336D01*
X-966Y-334D01*
X-965Y-333D01*
X-965Y-333D01*
X-965Y-332D01*
X-965Y-332D01*
X-944D01*
Y-269D01*
D02*
G37*
G36*
X-100Y-1124D02*
X-108Y-1125D01*
X-116Y-1129D01*
X-123Y-1134D01*
X-128Y-1140D01*
X-131Y-1148D01*
X-132Y-1156D01*
X-131Y-1165D01*
X-128Y-1173D01*
X-123Y-1179D01*
X-116Y-1184D01*
X-108Y-1188D01*
X-100Y-1189D01*
X-92Y-1188D01*
X-84Y-1184D01*
X-77Y-1179D01*
X-72Y-1173D01*
X-69Y-1165D01*
X-68Y-1156D01*
X-69Y-1148D01*
X-72Y-1140D01*
X-77Y-1134D01*
X-84Y-1129D01*
X-92Y-1125D01*
X-100Y-1124D01*
D02*
G37*
G36*
Y-1224D02*
X-108Y-1225D01*
X-116Y-1229D01*
X-123Y-1234D01*
X-128Y-1240D01*
X-131Y-1248D01*
X-132Y-1256D01*
X-131Y-1265D01*
X-128Y-1273D01*
X-123Y-1279D01*
X-116Y-1284D01*
X-108Y-1288D01*
X-100Y-1289D01*
X-92Y-1288D01*
X-84Y-1284D01*
X-77Y-1279D01*
X-72Y-1273D01*
X-69Y-1265D01*
X-68Y-1256D01*
X-69Y-1248D01*
X-72Y-1240D01*
X-77Y-1234D01*
X-84Y-1229D01*
X-92Y-1225D01*
X-100Y-1224D01*
D02*
G37*
G36*
X-1971Y-1221D02*
X-2041D01*
Y-1291D01*
X-1971D01*
Y-1221D01*
D02*
G37*
G36*
X-100Y-1324D02*
X-108Y-1325D01*
X-116Y-1329D01*
X-123Y-1334D01*
X-128Y-1340D01*
X-131Y-1348D01*
X-132Y-1356D01*
X-131Y-1365D01*
X-128Y-1373D01*
X-123Y-1379D01*
X-116Y-1384D01*
X-108Y-1388D01*
X-100Y-1389D01*
X-92Y-1388D01*
X-84Y-1384D01*
X-77Y-1379D01*
X-72Y-1373D01*
X-69Y-1365D01*
X-68Y-1356D01*
X-69Y-1348D01*
X-72Y-1340D01*
X-77Y-1334D01*
X-84Y-1329D01*
X-92Y-1325D01*
X-100Y-1324D01*
D02*
G37*
G36*
Y-1424D02*
X-108Y-1425D01*
X-116Y-1429D01*
X-123Y-1434D01*
X-128Y-1440D01*
X-131Y-1448D01*
X-132Y-1456D01*
X-131Y-1465D01*
X-128Y-1473D01*
X-123Y-1479D01*
X-116Y-1484D01*
X-108Y-1488D01*
X-100Y-1489D01*
X-92Y-1488D01*
X-84Y-1484D01*
X-77Y-1479D01*
X-72Y-1473D01*
X-69Y-1465D01*
X-68Y-1456D01*
X-69Y-1448D01*
X-72Y-1440D01*
X-77Y-1434D01*
X-84Y-1429D01*
X-92Y-1425D01*
X-100Y-1424D01*
D02*
G37*
G36*
X-2006Y-1421D02*
X-2015Y-1422D01*
X-2024Y-1426D01*
X-2031Y-1431D01*
X-2037Y-1439D01*
X-2040Y-1447D01*
X-2041Y-1456D01*
X-2040Y-1466D01*
X-2037Y-1474D01*
X-2031Y-1481D01*
X-2024Y-1487D01*
X-2015Y-1491D01*
X-2006Y-1492D01*
X-1997Y-1491D01*
X-1988Y-1487D01*
X-1981Y-1481D01*
X-1975Y-1474D01*
X-1972Y-1466D01*
X-1971Y-1456D01*
X-1972Y-1447D01*
X-1975Y-1439D01*
X-1981Y-1431D01*
X-1988Y-1426D01*
X-1997Y-1422D01*
X-2006Y-1421D01*
D02*
G37*
G36*
X-100Y-1524D02*
X-108Y-1525D01*
X-116Y-1529D01*
X-123Y-1534D01*
X-128Y-1540D01*
X-131Y-1548D01*
X-132Y-1556D01*
X-131Y-1565D01*
X-128Y-1573D01*
X-123Y-1579D01*
X-116Y-1584D01*
X-108Y-1588D01*
X-100Y-1589D01*
X-92Y-1588D01*
X-84Y-1584D01*
X-77Y-1579D01*
X-72Y-1573D01*
X-69Y-1565D01*
X-68Y-1556D01*
X-69Y-1548D01*
X-72Y-1540D01*
X-77Y-1534D01*
X-84Y-1529D01*
X-92Y-1525D01*
X-100Y-1524D01*
D02*
G37*
G36*
X-2006Y-1521D02*
X-2015Y-1522D01*
X-2024Y-1526D01*
X-2031Y-1531D01*
X-2037Y-1539D01*
X-2040Y-1547D01*
X-2041Y-1556D01*
X-2040Y-1566D01*
X-2037Y-1574D01*
X-2031Y-1581D01*
X-2024Y-1587D01*
X-2015Y-1591D01*
X-2006Y-1592D01*
X-1997Y-1591D01*
X-1988Y-1587D01*
X-1981Y-1581D01*
X-1975Y-1574D01*
X-1972Y-1566D01*
X-1971Y-1556D01*
X-1972Y-1547D01*
X-1975Y-1539D01*
X-1981Y-1531D01*
X-1988Y-1526D01*
X-1997Y-1522D01*
X-2006Y-1521D01*
D02*
G37*
G36*
X-100Y-1624D02*
X-108Y-1625D01*
X-116Y-1629D01*
X-123Y-1634D01*
X-128Y-1640D01*
X-131Y-1648D01*
X-132Y-1656D01*
X-131Y-1665D01*
X-128Y-1673D01*
X-123Y-1679D01*
X-116Y-1684D01*
X-108Y-1688D01*
X-100Y-1689D01*
X-92Y-1688D01*
X-84Y-1684D01*
X-77Y-1679D01*
X-72Y-1673D01*
X-69Y-1665D01*
X-68Y-1656D01*
X-69Y-1648D01*
X-72Y-1640D01*
X-77Y-1634D01*
X-84Y-1629D01*
X-92Y-1625D01*
X-100Y-1624D01*
D02*
G37*
G36*
X-68Y-1725D02*
X-132D01*
Y-1788D01*
X-68D01*
Y-1725D01*
D02*
G37*
G36*
X-1080Y-1731D02*
X-1161D01*
Y-1812D01*
X-1080D01*
Y-1731D01*
D02*
G37*
G36*
X-1572D02*
X-1653D01*
Y-1812D01*
X-1572D01*
Y-1731D01*
D02*
G37*
G36*
X-923Y-1731D02*
X-934Y-1733D01*
X-944Y-1737D01*
X-952Y-1743D01*
X-959Y-1752D01*
X-963Y-1761D01*
X-964Y-1772D01*
X-963Y-1782D01*
X-959Y-1792D01*
X-952Y-1801D01*
X-944Y-1807D01*
X-934Y-1811D01*
X-923Y-1813D01*
X-913Y-1811D01*
X-903Y-1807D01*
X-895Y-1801D01*
X-888Y-1792D01*
X-884Y-1782D01*
X-883Y-1772D01*
X-884Y-1761D01*
X-888Y-1752D01*
X-895Y-1743D01*
X-903Y-1737D01*
X-913Y-1733D01*
X-923Y-1731D01*
D02*
G37*
G36*
X-1416D02*
X-1426Y-1733D01*
X-1436Y-1737D01*
X-1444Y-1743D01*
X-1451Y-1752D01*
X-1455Y-1761D01*
X-1456Y-1772D01*
X-1455Y-1782D01*
X-1451Y-1792D01*
X-1444Y-1801D01*
X-1436Y-1807D01*
X-1426Y-1811D01*
X-1416Y-1813D01*
X-1405Y-1811D01*
X-1395Y-1807D01*
X-1387Y-1801D01*
X-1380Y-1792D01*
X-1376Y-1782D01*
X-1375Y-1772D01*
X-1376Y-1761D01*
X-1380Y-1752D01*
X-1387Y-1743D01*
X-1395Y-1737D01*
X-1405Y-1733D01*
X-1416Y-1731D01*
D02*
G37*
G36*
X-703Y-1787D02*
X-716Y-1788D01*
X-729Y-1792D01*
X-741Y-1799D01*
X-751Y-1807D01*
X-760Y-1817D01*
X-766Y-1829D01*
X-770Y-1842D01*
X-771Y-1855D01*
X-770Y-1869D01*
X-766Y-1881D01*
X-760Y-1893D01*
X-751Y-1904D01*
X-741Y-1912D01*
X-729Y-1918D01*
X-716Y-1922D01*
X-703Y-1924D01*
X-690Y-1922D01*
X-677Y-1918D01*
X-665Y-1912D01*
X-655Y-1904D01*
X-646Y-1893D01*
X-640Y-1881D01*
X-636Y-1869D01*
X-635Y-1855D01*
X-636Y-1842D01*
X-640Y-1829D01*
X-646Y-1817D01*
X-655Y-1807D01*
X-665Y-1799D01*
X-677Y-1792D01*
X-690Y-1788D01*
X-703Y-1787D01*
D02*
G37*
%LPD*%
G36*
X-130Y-7D02*
X-130Y-6D01*
X-130Y-5D01*
X-131Y-4D01*
X-131Y-3D01*
X-132Y-3D01*
X-134Y-2D01*
X-135Y-2D01*
X-136Y-2D01*
X-138Y-2D01*
X-140Y-2D01*
Y8D01*
X-138Y8D01*
X-136Y9D01*
X-135Y9D01*
X-134Y9D01*
X-132Y10D01*
X-131Y10D01*
X-131Y11D01*
X-130Y12D01*
X-130Y12D01*
X-130Y13D01*
Y-7D01*
D02*
G37*
G36*
X-1042Y-274D02*
X-1044Y-275D01*
X-1045Y-277D01*
X-1046Y-279D01*
X-1047Y-281D01*
X-1048Y-284D01*
X-1048Y-287D01*
X-1049Y-290D01*
X-1049Y-293D01*
X-1049Y-300D01*
X-1076Y-274D01*
X-1072Y-273D01*
X-1065Y-273D01*
X-1062Y-273D01*
X-1060Y-272D01*
X-1057Y-271D01*
X-1055Y-270D01*
X-1053Y-269D01*
X-1051Y-268D01*
X-1049Y-267D01*
X-1042Y-274D01*
D02*
G37*
G36*
X-1059Y-322D02*
X-1063Y-327D01*
X-1065Y-330D01*
X-1066Y-332D01*
X-1068Y-334D01*
X-1069Y-337D01*
X-1069Y-339D01*
X-1070Y-341D01*
X-1070Y-343D01*
X-1080Y-343D01*
X-1080Y-341D01*
X-1080Y-339D01*
X-1081Y-337D01*
X-1082Y-335D01*
X-1083Y-333D01*
X-1085Y-330D01*
X-1087Y-328D01*
X-1089Y-326D01*
X-1094Y-321D01*
X-1056Y-319D01*
X-1059Y-322D01*
D02*
G37*
G36*
X-1500Y-1064D02*
X-1498Y-1065D01*
X-1497Y-1066D01*
X-1496Y-1067D01*
X-1494Y-1068D01*
X-1493Y-1069D01*
X-1491Y-1069D01*
X-1490Y-1070D01*
X-1488Y-1070D01*
X-1487Y-1070D01*
Y-1080D01*
X-1488Y-1080D01*
X-1490Y-1080D01*
X-1491Y-1080D01*
X-1493Y-1081D01*
X-1494Y-1082D01*
X-1496Y-1082D01*
X-1497Y-1083D01*
X-1498Y-1084D01*
X-1500Y-1086D01*
X-1501Y-1087D01*
Y-1063D01*
X-1500Y-1064D01*
D02*
G37*
G36*
X-1762Y-26D02*
X-1764Y-26D01*
X-1766Y-27D01*
X-1768Y-27D01*
X-1769Y-27D01*
X-1771Y-28D01*
X-1772Y-28D01*
X-1774Y-29D01*
X-1775Y-30D01*
X-1776Y-31D01*
X-1778Y-32D01*
X-1785Y-25D01*
X-1784Y-23D01*
X-1783Y-22D01*
X-1782Y-21D01*
X-1781Y-20D01*
X-1781Y-18D01*
X-1780Y-16D01*
X-1780Y-15D01*
X-1779Y-13D01*
X-1779Y-11D01*
X-1779Y-9D01*
X-1762Y-26D01*
D02*
G37*
G36*
X-1984Y-540D02*
X-1979Y-545D01*
X-1977Y-547D01*
X-1974Y-548D01*
X-1972Y-549D01*
X-1970Y-550D01*
X-1967Y-551D01*
X-1965Y-551D01*
X-1963Y-552D01*
Y-562D01*
X-1965Y-562D01*
X-1967Y-562D01*
X-1970Y-563D01*
X-1972Y-564D01*
X-1974Y-565D01*
X-1977Y-567D01*
X-1979Y-568D01*
X-1982Y-570D01*
X-1987Y-575D01*
Y-538D01*
X-1984Y-540D01*
D02*
G37*
G36*
X-911Y-87D02*
X-913Y-86D01*
X-914Y-84D01*
X-915Y-83D01*
X-917Y-82D01*
X-918Y-82D01*
X-920Y-81D01*
X-921Y-80D01*
X-923Y-80D01*
X-924Y-80D01*
X-926Y-80D01*
Y-70D01*
X-924Y-70D01*
X-923Y-70D01*
X-921Y-69D01*
X-920Y-69D01*
X-918Y-68D01*
X-917Y-67D01*
X-915Y-66D01*
X-914Y-65D01*
X-913Y-64D01*
X-911Y-63D01*
Y-87D01*
D02*
G37*
G36*
X-1980Y-1340D02*
X-1975Y-1345D01*
X-1972Y-1347D01*
X-1970Y-1349D01*
X-1967Y-1351D01*
X-1965Y-1352D01*
X-1963Y-1353D01*
X-1960Y-1353D01*
X-1958Y-1353D01*
X-1959Y-1363D01*
X-1961Y-1363D01*
X-1963Y-1364D01*
X-1965Y-1365D01*
X-1968Y-1366D01*
X-1970Y-1367D01*
X-1973Y-1369D01*
X-1976Y-1371D01*
X-1983Y-1376D01*
X-1986Y-1379D01*
X-1983Y-1337D01*
X-1980Y-1340D01*
D02*
G37*
G36*
X-497Y-104D02*
X-497Y-104D01*
X-497Y-104D01*
X-497Y-104D01*
X-498Y-104D01*
X-498Y-104D01*
X-499Y-104D01*
X-501Y-103D01*
X-503Y-103D01*
Y-93D01*
X-502Y-93D01*
X-498Y-93D01*
X-498Y-93D01*
X-497Y-93D01*
X-497Y-93D01*
X-497Y-93D01*
X-497Y-92D01*
Y-104D01*
D02*
G37*
G36*
X-1680Y-412D02*
X-1675Y-416D01*
X-1673Y-418D01*
X-1671Y-419D01*
X-1669Y-420D01*
X-1667Y-421D01*
X-1665Y-422D01*
X-1663Y-422D01*
X-1661Y-422D01*
Y-432D01*
X-1663Y-432D01*
X-1665Y-433D01*
X-1667Y-433D01*
X-1669Y-434D01*
X-1671Y-435D01*
X-1673Y-437D01*
X-1675Y-438D01*
X-1678Y-440D01*
X-1682Y-445D01*
Y-410D01*
X-1680Y-412D01*
D02*
G37*
G36*
X-1714Y-311D02*
X-1715Y-310D01*
X-1717Y-310D01*
X-1719Y-309D01*
X-1721Y-308D01*
X-1723Y-307D01*
X-1725Y-307D01*
X-1728Y-307D01*
X-1732Y-306D01*
X-1735Y-306D01*
X-1740Y-286D01*
X-1737Y-286D01*
X-1735Y-286D01*
X-1733Y-285D01*
X-1731Y-285D01*
X-1729Y-284D01*
X-1727Y-283D01*
X-1726Y-282D01*
X-1724Y-281D01*
X-1723Y-279D01*
X-1722Y-277D01*
X-1714Y-311D01*
D02*
G37*
G36*
X-1985Y-739D02*
X-1983Y-741D01*
X-1981Y-742D01*
X-1979Y-743D01*
X-1977Y-744D01*
X-1975Y-745D01*
X-1972Y-746D01*
X-1970Y-746D01*
X-1967Y-746D01*
X-1965Y-747D01*
Y-767D01*
X-1967Y-767D01*
X-1970Y-767D01*
X-1972Y-767D01*
X-1975Y-768D01*
X-1977Y-769D01*
X-1979Y-770D01*
X-1981Y-771D01*
X-1983Y-772D01*
X-1985Y-774D01*
X-1987Y-775D01*
Y-738D01*
X-1985Y-739D01*
D02*
G37*
G36*
X-1915Y-170D02*
X-1916Y-170D01*
X-1916Y-171D01*
X-1916Y-172D01*
X-1917Y-173D01*
X-1917Y-175D01*
X-1917Y-178D01*
X-1917Y-181D01*
X-1937D01*
X-1937Y-179D01*
X-1938Y-175D01*
X-1938Y-173D01*
X-1938Y-172D01*
X-1938Y-171D01*
X-1939Y-170D01*
X-1939Y-170D01*
X-1939Y-169D01*
X-1915D01*
X-1915Y-170D01*
D02*
G37*
G36*
X-1985Y-439D02*
X-1983Y-441D01*
X-1981Y-442D01*
X-1979Y-443D01*
X-1977Y-444D01*
X-1975Y-445D01*
X-1972Y-446D01*
X-1970Y-446D01*
X-1967Y-446D01*
X-1965Y-447D01*
Y-467D01*
X-1967Y-467D01*
X-1970Y-467D01*
X-1972Y-467D01*
X-1975Y-468D01*
X-1977Y-469D01*
X-1979Y-470D01*
X-1981Y-471D01*
X-1983Y-472D01*
X-1985Y-474D01*
X-1987Y-475D01*
Y-438D01*
X-1985Y-439D01*
D02*
G37*
G36*
X-1142Y-677D02*
X-1141Y-678D01*
X-1140Y-679D01*
X-1138Y-679D01*
X-1137Y-680D01*
X-1135Y-681D01*
X-1133Y-681D01*
X-1132Y-681D01*
X-1130Y-681D01*
X-1128Y-681D01*
X-1145Y-699D01*
X-1145Y-697D01*
X-1145Y-695D01*
X-1146Y-693D01*
X-1146Y-691D01*
X-1146Y-690D01*
X-1147Y-688D01*
X-1148Y-687D01*
X-1149Y-685D01*
X-1149Y-684D01*
X-1150Y-683D01*
X-1143Y-676D01*
X-1142Y-677D01*
D02*
G37*
G36*
X-1981Y-1638D02*
X-1976Y-1643D01*
X-1973Y-1646D01*
X-1970Y-1647D01*
X-1968Y-1649D01*
X-1965Y-1650D01*
X-1963Y-1651D01*
X-1960Y-1651D01*
X-1958Y-1651D01*
Y-1661D01*
X-1960Y-1662D01*
X-1963Y-1662D01*
X-1965Y-1663D01*
X-1968Y-1664D01*
X-1970Y-1665D01*
X-1973Y-1667D01*
X-1976Y-1669D01*
X-1981Y-1674D01*
X-1985Y-1677D01*
Y-1635D01*
X-1981Y-1638D01*
D02*
G37*
G36*
X-1202Y-711D02*
X-1204Y-710D01*
X-1205Y-708D01*
X-1207Y-707D01*
X-1208Y-706D01*
X-1210Y-706D01*
X-1211Y-705D01*
X-1213Y-704D01*
X-1214Y-704D01*
X-1216Y-704D01*
X-1217Y-704D01*
Y-694D01*
X-1216Y-694D01*
X-1214Y-694D01*
X-1213Y-693D01*
X-1211Y-693D01*
X-1210Y-692D01*
X-1208Y-691D01*
X-1207Y-690D01*
X-1205Y-689D01*
X-1204Y-688D01*
X-1202Y-687D01*
Y-711D01*
D02*
G37*
G36*
X-1983Y-1736D02*
X-1974Y-1743D01*
X-1971Y-1744D01*
X-1968Y-1746D01*
X-1966Y-1747D01*
X-1963Y-1747D01*
X-1961Y-1748D01*
X-1959Y-1748D01*
X-1958Y-1758D01*
X-1960Y-1758D01*
X-1962Y-1759D01*
X-1965Y-1759D01*
X-1967Y-1761D01*
X-1970Y-1762D01*
X-1972Y-1764D01*
X-1975Y-1766D01*
X-1977Y-1769D01*
X-1980Y-1772D01*
X-1982Y-1775D01*
X-1987Y-1733D01*
X-1983Y-1736D01*
D02*
G37*
G36*
X-967Y-327D02*
X-968Y-328D01*
X-969Y-328D01*
X-969Y-329D01*
X-970Y-330D01*
X-970Y-331D01*
X-971Y-332D01*
X-971Y-334D01*
X-971Y-335D01*
X-971Y-337D01*
X-981D01*
X-981Y-335D01*
X-981Y-334D01*
X-982Y-332D01*
X-982Y-331D01*
X-982Y-330D01*
X-983Y-329D01*
X-984Y-328D01*
X-984Y-328D01*
X-985Y-327D01*
X-986Y-327D01*
X-966D01*
X-967Y-327D01*
D02*
G37*
G36*
X-1712Y-1085D02*
X-1713Y-1086D01*
X-1714Y-1088D01*
X-1715Y-1089D01*
X-1716Y-1091D01*
X-1716Y-1092D01*
X-1717Y-1094D01*
X-1717Y-1095D01*
X-1717Y-1097D01*
X-1717Y-1098D01*
X-1727D01*
X-1728Y-1097D01*
X-1728Y-1095D01*
X-1728Y-1094D01*
X-1729Y-1092D01*
X-1729Y-1091D01*
X-1730Y-1089D01*
X-1731Y-1088D01*
X-1732Y-1086D01*
X-1733Y-1085D01*
X-1735Y-1083D01*
X-1710D01*
X-1712Y-1085D01*
D02*
G37*
D14*
X-503Y-98D02*
X-480D01*
X-587Y-15D02*
X-503Y-98D01*
X-1178Y-15D02*
X-587D01*
X-1591Y-427D02*
X-1178Y-15D01*
X-1700Y-427D02*
X-1591D01*
X-1825Y-72D02*
X-1762Y-9D01*
X-1825Y-444D02*
Y-72D01*
X-1937Y-557D02*
X-1825Y-444D01*
X-1174Y-75D02*
X-899D01*
X-1882Y-782D02*
X-1174Y-75D01*
X-1882Y-1282D02*
Y-782D01*
X-2006Y-557D02*
X-1937D01*
X-1699Y-650D02*
X-1177D01*
X-1836Y-786D02*
X-1699Y-650D01*
X-1836Y-1581D02*
Y-786D01*
X-1683Y-699D02*
X-1190D01*
X-1808Y-824D02*
X-1683Y-699D01*
X-1808Y-1643D02*
Y-824D01*
X-976Y-856D02*
Y-300D01*
X-1233Y-1113D02*
X-976Y-856D01*
X-1716Y-1113D02*
X-1233D01*
X-1722Y-1106D02*
X-1716Y-1113D01*
X-1722Y-1106D02*
Y-1071D01*
X-1374Y-1075D02*
X-1075Y-776D01*
X-1076Y-300D02*
X-1075Y-302D01*
Y-776D02*
Y-302D01*
X-1514Y-1075D02*
X-1374D01*
X-2006Y-1656D02*
X-1911D01*
X-1836Y-1581D01*
X-2003Y-1753D02*
X-1918D01*
X-2006Y-1756D02*
X-2003Y-1753D01*
X-1918D02*
X-1808Y-1643D01*
X-1177Y-650D02*
X-1128Y-699D01*
X-2004Y-1358D02*
X-1958D01*
X-2006Y-1356D02*
X-2004Y-1358D01*
X-1958D02*
X-1882Y-1282D01*
X-335Y-167D02*
X-164Y3D01*
X-100D01*
X-943Y-167D02*
X-335D01*
X-1076Y-300D02*
X-943Y-167D01*
D49*
X-1789Y-615D02*
Y-342D01*
X-1931Y-757D02*
X-1789Y-615D01*
X-2006Y-757D02*
X-1931D01*
X-1789Y-342D02*
X-1744Y-296D01*
X-1706D01*
X-1700Y-290D01*
X-1927Y-440D02*
Y-156D01*
X-1944Y-457D02*
X-1927Y-440D01*
X-2006Y-457D02*
X-1944D01*
D51*
X-976Y-300D02*
D03*
D52*
X-1076D02*
D03*
X-1176D02*
D03*
X-1276D02*
D03*
X-2006Y-457D02*
D03*
Y-557D02*
D03*
Y-657D02*
D03*
Y-757D02*
D03*
Y-857D02*
D03*
Y-957D02*
D03*
Y-1057D02*
D03*
X-100Y-1656D02*
D03*
Y-1556D02*
D03*
Y-1456D02*
D03*
Y-1356D02*
D03*
Y-1256D02*
D03*
Y-1156D02*
D03*
Y-1056D02*
D03*
D53*
X-923Y-1772D02*
D03*
X-1416D02*
D03*
D54*
X-1120D02*
D03*
X-1612D02*
D03*
D55*
X-100Y3D02*
D03*
X-2006Y-1256D02*
D03*
D56*
X-100Y-97D02*
D03*
Y-297D02*
D03*
Y-397D02*
D03*
Y-497D02*
D03*
Y-597D02*
D03*
Y-697D02*
D03*
Y-797D02*
D03*
Y-897D02*
D03*
Y-197D02*
D03*
X-2006Y-1756D02*
D03*
Y-1656D02*
D03*
Y-1556D02*
D03*
Y-1456D02*
D03*
Y-1356D02*
D03*
D57*
Y-357D02*
D03*
X-100Y-1756D02*
D03*
D58*
X-103Y143D02*
D03*
X-703Y-1855D02*
D03*
X-2004Y193D02*
D03*
D59*
X-480Y-98D02*
D03*
X-2011Y-155D02*
D03*
X-497Y87D02*
D03*
X-1069Y-1004D02*
D03*
X-1399Y-1157D02*
D03*
X-1584Y-1223D02*
D03*
X-842Y-709D02*
D03*
X-1366Y-475D02*
D03*
X-1752Y169D02*
D03*
X-1722Y-1071D02*
D03*
X-1514Y-1075D02*
D03*
X-899Y-75D02*
D03*
X-1128Y-699D02*
D03*
X-1190D02*
D03*
X-1762Y-9D02*
D03*
X-1927Y-156D02*
D03*
D60*
X-1700Y-427D02*
D03*
Y-359D02*
D03*
Y-290D02*
D03*
Y-222D02*
D03*
Y-154D02*
D03*
M02*
